# xmcd
#
# Track frame offsets:
#	150
#	30351
#	72567
#	101373
#	119057
#
# Disc length: 2552 seconds
# Revision: 0
# Processed by: cddbd v1.5.2PL0 Copyright (c) Steve Scherf et al.
# Submitted via: dBpowerAMP V12.0
#
DISCID=3f09f605
DTITLE=Lynyrd Skynyrd - The Ritz- Tribute Tour 1987 - NY - Sept '88
DYEAR=2016
DGENRE=Rock-Southern
TTITLE0=Comin' Home
TTITLE1=Simple Man
TTITLE2=Sweet Home Alabama
TTITLE3=Band Intros
TTITLE4=Freebird
EXTD=
EXTT0=
EXTT1=
EXTT2=
EXTT3=
EXTT4=
PLAYORDER=
